<?xml version="1.0" encoding="UTF-8"?>
<!DOCTYPE svg PUBLIC "-//W3C//DTD SVG 1.1//EN" "http://www.w3.org/Graphics/SVG/1.1/DTD/svg11.dtd">
<!-- Creator: CorelDRAW X8 -->
<svg xmlns="http://www.w3.org/2000/svg" xml:space="preserve" width="130px" height="53px" version="1.1" style="shape-rendering:geometricPrecision; text-rendering:geometricPrecision; image-rendering:optimizeQuality; fill-rule:evenodd; clip-rule:evenodd"
viewBox="0 0 130 53"
 xmlns:xlink="http://www.w3.org/1999/xlink">
 <defs>
  <style type="text/css">
   <![CDATA[
    .fil0 {fill:#2B2A29;fill-rule:nonzero}
    .fil1 {fill:#DE6D6E;fill-rule:nonzero}
   ]]>
  </style>
 </defs>
 <g id="Слой_x0020_1">
  <metadata id="CorelCorpID_0Corel-Layer"/>
  <path class="fil0" d="M20 15c-1,-2 -3,-4 -7,-4 -8,0 -12,6 -12,12 0,6 4,11 11,11 8,0 11,-7 14,-15 2,2 3,4 3,6 0,1 0,2 0,3 0,7 2,12 8,12 2,0 4,-2 5,-4l-3 -1c0,1 -1,2 -3,2 -3,0 -4,-3 -4,-10 0,-6 1,-15 3,-24l-2 -1c-3,2 -5,8 -8,15 -1,-1 -3,-1 -5,-2zm-12 8l3 1c0,-4 4,-6 7,-6 0,0 0,0 0,0 0,2 -1,5 -4,6l1 2c4,-1 6,-4 6,-8 0,0 0,0 0,-1 1,0 2,1 3,1 -3,8 -6,15 -12,15 -6,0 -8,-5 -8,-10 0,-5 3,-11 9,-11 2,0 4,2 5,4 -5,0 -9,3 -10,7zm24 -18c-1,6 -2,11 -3,16 0,-1 -1,-2 -2,-3 2,-5 3,-10 5,-13l0 0z"/>
  <path id="1" class="fil0" d="M37 25c0,0 -1,0 -1,-2 0,-1 0,-2 1,-4 1,-1 3,-4 4,-8 0,0 1,-2 1,-4 0,-2 -1,-3 -2,-3 -2,0 -4,3 -5,11 -1,3 -1,6 -1,8 0,3 1,5 3,5 1,0 3,-3 4,-7 0,0 0,0 0,0 0,0 0,-1 0,-1 -1,4 -3,5 -4,5zm3 -18c0,3 -2,8 -3,11 1,-6 2,-12 3,-12 0,0 0,0 0,1z"/>
  <path id="2" class="fil0" d="M45 25c-2,0 -2,-1 -2,-3 0,0 0,0 0,0 3,-1 5,-4 5,-6 0,-1 -1,-2 -2,-2 -3,0 -5,5 -5,8 0,3 1,6 3,6 3,0 4,-3 6,-7 0,0 -1,-1 -1,-1 -1,3 -3,5 -4,5zm1 -9c0,0 0,0 0,0 0,1 -1,3 -3,4 0,-2 2,-4 3,-4z"/>
  <path id="3" class="fil0" d="M49 20c0,1 1,1 1,1 1,-4 2,-5 2,-5 1,0 1,3 1,6 -1,2 -1,4 -2,4 0,0 0,-1 0,-1 0,0 0,-1 0,-1l-1 -1c-1,1 -1,2 -1,3 0,1 0,2 1,2 2,0 3,-2 3,-4 1,2 1,3 3,3 1,0 3,-1 5,-6 0,0 -1,-1 -1,-1 -1,4 -2,5 -3,5 -1,0 -1,-2 -1,-4 0,-3 1,-5 3,-5 0,0 0,0 0,1l1 -3c0,0 -1,0 -1,0 -2,0 -3,3 -4,5 0,-3 0,-5 -2,-5 -1,0 -2,2 -4,6l0 0z"/>
  <path class="fil1" d="M74 15c-1,4 -2,8 -3,13 -1,2 -2,5 -4,8 0,-4 0,-7 -1,-11 0,-3 0,-5 0,-8l-2 0c0,1 0,2 0,2 0,3 0,6 0,9 -2,10 -7,17 -13,17 -4,0 -6,-3 -6,-7 0,-3 2,-8 6,-8 2,0 3,2 3,4 0,1 0,3 -1,4l2 1c1,-1 2,-3 2,-4 0,-4 -2,-6 -6,-6 -5,0 -9,5 -9,9 0,4 3,9 9,9 6,0 11,-6 14,-16 0,3 0,6 0,10 0,2 -1,3 -1,5l3 0c1,-2 1,-4 1,-6 0,0 0,0 0,-1 1,-2 2,-5 3,-7 0,2 0,4 0,5 0,9 2,15 7,15 3,0 5,-1 6,-4l-3 0c0,1 -1,2 -3,2 -4,0 -5,-7 -5,-15 0,-3 0,-6 1,-9 1,-4 2,-8 2,-11l-2 0z"/>
  <path id="1" class="fil1" d="M85 33c0,1 -1,2 -2,2 1,-1 1,-2 1,-4 0,-2 -1,-4 -3,-4 -2,0 -3,1 -3,4l-1 -1c-1,2 -1,4 -1,6 0,2 1,4 3,4 1,0 3,-1 4,-3 1,-1 2,-2 3,-4 0,0 0,0 -1,0zm-4 -5c0,0 0,0 0,0 1,0 1,1 1,3 0,1 -1,3 -1,5 -1,-1 -2,-2 -2,-4 0,-2 1,-3 2,-4zm-2 10c0,0 0,0 0,0 -1,0 -1,-1 -1,-3 0,0 0,-1 0,-1 0,1 1,2 2,3 0,1 0,1 -1,1z"/>
  <path id="2" class="fil1" d="M89 37c0,-1 1,-3 1,-5 0,-2 -1,-3 -2,-4 0,-1 1,-3 1,-4l-2 -1c-1,1 -1,3 -1,3 0,1 0,2 1,3 -1,1 -1,3 -2,4 0,0 0,0 0,0 0,0 1,0 1,0l1 -3c1,1 1,2 1,3 0,1 -1,3 -1,5 0,1 0,2 1,2 3,0 4,-3 5,-7 0,0 0,0 0,0 0,0 -1,0 -1,0 -1,3 -2,5 -3,5 0,0 0,0 0,-1z"/>
  <path id="3" class="fil1" d="M102 33c-1,1 -1,2 -2,2 0,-1 0,-2 0,-4 0,-2 -1,-4 -2,-4 -3,0 -4,1 -4,4l-1 -1c-1,2 -1,4 -1,6 0,2 1,4 3,4 2,0 3,-1 4,-3 2,-1 3,-2 4,-4 0,0 -1,0 -1,0zm-5 -5c0,0 0,0 0,0 1,0 1,1 1,3 0,1 0,3 -1,5 -1,-1 -2,-2 -2,-4 0,-2 1,-3 2,-4zm-2 10c0,0 0,0 0,0 0,0 -1,-1 -1,-3 0,0 0,-1 0,-1 1,1 1,2 3,3 -1,1 -1,1 -2,1z"/>
  <path id="4" class="fil1" d="M102 40c0,0 0,0 1,0 0,0 0,0 1,0 0,0 0,1 0,1 -2,2 -3,4 -3,6 0,1 1,2 2,2 2,0 4,-3 4,-6 0,-1 -1,-2 -1,-2 2,-2 4,-4 5,-8 0,0 -1,0 -1,0 -1,3 -3,5 -4,7 -1,0 -1,0 -1,-1 2,-1 3,-5 3,-8 0,-3 0,-4 -2,-4 -3,0 -3,3 -4,6 0,0 0,0 0,0 0,0 1,0 1,0 1,-3 1,-4 2,-4 0,0 1,0 1,1 0,2 -1,7 -3,9 0,0 0,0 0,0 0,0 -1,0 -1,0l0 1zm1 7c-1,0 -1,0 -1,0 0,-1 1,-3 2,-4 0,0 0,0 0,0 0,2 0,4 -1,4z"/>
  <path id="5" class="fil1" d="M120 33c-1,1 -2,2 -2,2 0,-1 0,-2 0,-4 0,-2 -1,-4 -3,-4 -2,0 -3,1 -3,4l-1 -1c-1,2 -1,4 -1,6 0,2 1,4 3,4 2,0 3,-1 4,-3 1,-1 3,-2 3,-4 0,0 0,0 0,0zm-5 -5c0,0 0,0 0,0 1,0 1,1 1,3 0,1 0,3 -1,5 -1,-1 -2,-2 -2,-4 0,-2 1,-3 2,-4zm-2 10c0,0 0,0 0,0 -1,0 -1,-1 -1,-3 0,0 0,-1 0,-1 0,1 1,2 2,3 0,1 0,1 -1,1z"/>
  <path id="6" class="fil1" d="M122 37c0,-3 0,-5 0,-7 0,-1 0,-2 0,-3 0,0 0,0 0,0l-2 0c0,1 0,2 0,3 0,0 0,1 0,1l0 2c0,0 0,0 0,0 0,2 1,5 1,7l1 0c1,-1 2,-2 3,-4 0,1 1,1 1,1 2,0 3,-2 4,-4 0,0 -1,0 -1,0 -1,2 -1,3 -3,3 0,0 0,0 0,0 1,-3 2,-6 2,-9 0,-1 -1,-2 -2,-2 -2,0 -3,3 -3,6 0,1 0,3 1,4 -1,1 -1,1 -2,2zm4 -10c0,1 0,3 -2,6 0,0 0,-1 0,-2 0,-2 1,-5 2,-5 0,0 0,0 0,1z"/>
 </g>
</svg>
